<svg width="22" height="17" viewBox="0 0 22 17" fill="none" xmlns="http://www.w3.org/2000/svg">
<path d="M0.494976 17H21.5028C21.7762 17 21.9977 16.7803 21.9977 16.5093V16.0676C21.9981 16.0602 22 16.0534 22 16.0459C22 15.9658 21.9806 15.8902 21.9462 15.8235L19.7981 10.4626V0.490706C19.7981 0.21967 19.5765 0 19.3031 0H2.69474C2.42134 0 2.19976 0.21967 2.19976 0.490706V10.4626L0.0349015 15.8648C0.0252066 15.8889 0.0184202 15.9136 0.012711 15.9385C0.0113107 15.9448 0.0102335 15.9511 0.00904853 15.9575C0.0036625 15.9861 0.000323162 16.0151 0.000215441 16.044C0.000215441 16.0446 0 16.0453 0 16.0459V16.5093C0 16.7803 0.221581 17 0.494976 17ZM8.87004 15.4164L9.3229 14.0281H12.6748L13.1277 15.4164H8.87004ZM3.65496 1.25191H18.3429V9.79522H3.65496V1.25191Z" fill="#31C683"/>
</svg>
