<svg width="130" height="130" viewBox="0 0 130 130" fill="none" xmlns="http://www.w3.org/2000/svg">
<g filter="url(#filter0_d)">
<path d="M9.88475 105.31L68.851 128L120.537 105.56C122.212 104.832 123.242 103.075 123.234 101.249C123.177 89.3378 125.955 52.1479 125.955 49.1939C125.955 45.8888 131.101 34.6195 128.014 23.6872C124.431 10.9993 96.6267 0.000241554 73.1834 0C49.7401 -0.000241506 40.0299 1.8225 25.1087 6.37765C12.5076 10.2245 3.67247 19.3369 2.34637 26.8913C0.688746 36.3343 0.371656 46.2706 2.47917 58.3063C3.99721 66.9755 7.32123 70.3293 7.32123 78.8279V101.584C7.32123 103.239 8.34028 104.716 9.88475 105.31Z" fill="url(#paint0_linear)"/>
<path opacity="0.4" d="M9.88463 105.31L68.8508 128L120.537 105.56C122.212 104.832 123.242 103.075 123.233 101.249C123.177 89.3378 125.954 52.1479 125.954 49.1939C125.954 45.8888 131.101 34.6195 128.014 23.6872C124.431 10.9993 96.6266 0.000241554 73.1833 0C49.74 -0.000241506 40.0298 1.8225 25.1086 6.37765C12.5075 10.2245 3.67235 19.3369 2.34625 26.8913C0.688629 36.3343 0.371764 46.2706 2.47928 58.3063C3.99732 66.9755 7.32112 70.3293 7.32112 78.8279V101.584C7.32112 103.239 8.34016 104.716 9.88463 105.31Z" fill="url(#paint1_radial)"/>
<path d="M9.705 105.209L69.6135 127.999L70.1254 89.9327C70.1284 89.7109 70.1127 89.4857 70.0778 89.2666C69.2561 84.1123 68.5807 84.0476 68.5807 80.9137C68.5807 77.7137 71.7953 66.7764 73.744 58.9709C76.8256 46.628 74.2597 34.2852 72.1948 30.628C70.1299 26.9708 57.2196 17.828 30.3655 16.9137C17.9232 16.4901 3.71897 21.9424 2.48027 29.2567C0.93189 38.3996 0.510785 46.4036 2.47941 58.0567C3.89739 66.4504 7.12726 71.314 7.12726 79.5424V101.477C7.12726 103.138 8.15307 104.618 9.705 105.209Z" fill="url(#paint2_linear)"/>
<path opacity="0.5" d="M9.705 105.209L69.6135 127.999L70.1254 89.9327C70.1284 89.7109 70.1127 89.4857 70.0778 89.2666C69.2561 84.1123 68.5807 84.0476 68.5807 80.9137C68.5807 77.7137 71.7953 66.7764 73.744 58.9709C76.8256 46.628 74.2597 34.2852 72.1948 30.628C70.1299 26.9708 57.2196 17.828 30.3655 16.9137C17.9232 16.4901 3.71897 21.9424 2.48027 29.2567C0.93189 38.3996 0.510785 46.4036 2.47941 58.0567C3.89739 66.4504 7.12726 71.314 7.12726 79.5424V101.477C7.12726 103.138 8.15307 104.618 9.705 105.209Z" fill="url(#paint3_radial)"/>
<ellipse cx="24.685" cy="74.9716" rx="4.13129" ry="3.65714" fill="#58421A"/>
<ellipse cx="26.3041" cy="74.514" rx="1.54923" ry="1.37143" fill="white"/>
<ellipse cx="43.2768" cy="80.4569" rx="4.13129" ry="3.65714" fill="#58421A"/>
<ellipse cx="44.8949" cy="79.9998" rx="1.54923" ry="1.37143" fill="white"/>
<ellipse rx="4.03775" ry="1.20725" transform="matrix(0.978527 -0.206117 0.259585 0.96572 46.5076 7.48352)" fill="#FFD99D"/>
<ellipse rx="3.93062" ry="1.0932" transform="matrix(0.890443 0.455095 -0.546285 0.837599 70.3247 19.2386)" fill="#F5D6A4"/>
<ellipse cx="65.9989" cy="8.68588" rx="3.09847" ry="1.37143" fill="#FFD796"/>
<path d="M113.508 107.886L115.62 61.1406C115.699 59.3946 115.961 57.6616 116.401 55.9702L120.738 39.3143" stroke="black" stroke-opacity="0.1" stroke-width="2" stroke-linecap="round"/>
<path d="M103.18 112.457L105.447 62.2831C105.546 60.0849 105.935 57.9094 106.604 55.813L110.409 43.8856" stroke="black" stroke-opacity="0.1" stroke-width="2" stroke-linecap="round"/>
<path d="M92.8516 117.028L95.1721 65.672C95.2499 63.9522 95.505 62.2451 95.9335 60.5778L99.0485 48.4569" stroke="black" stroke-opacity="0.1" stroke-width="2" stroke-linecap="round"/>
<path d="M82.5234 121.6L84.8068 71.0676C84.9091 68.8045 85.3184 66.5659 86.0237 64.4131L89.7532 53.0287" stroke="black" stroke-opacity="0.1" stroke-width="2" stroke-linecap="round"/>
<ellipse cx="87.1713" cy="12.3428" rx="1.54923" ry="2.28571" fill="#F3D29D"/>
<path d="M44.4781 96.914C44.8897 96.3674 45.1372 95.5799 45.286 94.8399C45.5079 93.7362 44.5839 92.8127 43.4582 92.7985C40.5761 92.7622 35.3198 92.5649 32.0832 91.6569C29.027 90.7995 25.7845 88.7838 23.5493 87.1987C22.2752 86.2952 20.5062 87.0247 20.5743 88.5851C20.7503 92.6206 22.1677 98.916 28.9847 101.028C32.0842 101.989 41.3806 101.028 44.4781 96.914Z" fill="#58421A"/>
<path d="M52.125 68.5718C52.125 68.5718 47.9937 63.0861 37.6655 64.4575C27.3372 65.8289 23.7224 63.0861 23.7224 63.0861" stroke="#E7B457" stroke-width="6" stroke-linecap="square"/>
</g>
<defs>
<filter id="filter0_d" x="0" y="0" width="130" height="130" filterUnits="userSpaceOnUse" color-interpolation-filters="sRGB">
<feFlood flood-opacity="0" result="BackgroundImageFix"/>
<feColorMatrix in="SourceAlpha" type="matrix" values="0 0 0 0 0 0 0 0 0 0 0 0 0 0 0 0 0 0 127 0"/>
<feOffset dy="1"/>
<feGaussianBlur stdDeviation="0.5"/>
<feColorMatrix type="matrix" values="0 0 0 0 0 0 0 0 0 0 0 0 0 0 0 0 0 0 0.1 0"/>
<feBlend mode="normal" in2="BackgroundImageFix" result="effect1_dropShadow"/>
<feBlend mode="normal" in="SourceGraphic" in2="effect1_dropShadow" result="shape"/>
</filter>
<linearGradient id="paint0_linear" x1="64.9654" y1="-1.75979e-06" x2="99.5766" y2="130.328" gradientUnits="userSpaceOnUse">
<stop stop-color="#AB5921"/>
<stop offset="1" stop-color="#F3C163"/>
</linearGradient>
<radialGradient id="paint1_radial" cx="0" cy="0" r="1" gradientUnits="userSpaceOnUse" gradientTransform="translate(78.9075 35.6571) rotate(63.4509) scale(53.1472 50.8777)">
<stop stop-color="white"/>
<stop offset="1" stop-color="white" stop-opacity="0"/>
</radialGradient>
<linearGradient id="paint2_linear" x1="38.1636" y1="16.8906" x2="38.1636" y2="128.914" gradientUnits="userSpaceOnUse">
<stop stop-color="#FFE9C6"/>
<stop offset="1" stop-color="#E6CDA4"/>
</linearGradient>
<radialGradient id="paint3_radial" cx="0" cy="0" r="1" gradientUnits="userSpaceOnUse" gradientTransform="translate(63.4161 29.7138) rotate(126.304) scale(81.1169 49.5297)">
<stop stop-color="white"/>
<stop offset="1" stop-color="white" stop-opacity="0"/>
</radialGradient>
</defs>
</svg>
