<svg width="100" height="100" viewBox="0 0 1024 1024" fill="none" xmlns="http://www.w3.org/2000/svg">
    <rect y="512" width="724.077" height="724.077" rx="124" transform="rotate(-45 0 512)" fill="url(#paint0_linear)"/>
    <path d="M705.445 336L694.445 564.5L693.445 593C693.445 606.333 694.779 617.333 697.445 626C700.112 634.667 704.945 641.167 711.945 645.5C707.612 654.167 698.779 661.333 685.445 667C672.445 672.667 657.445 675.5 640.445 675.5C620.445 675.5 604.945 670.167 593.945 659.5C582.945 648.833 577.445 633.5 577.445 613.5C577.445 612.167 577.279 609.833 576.945 606.5C576.945 603.167 577.112 600.167 577.445 597.5L587.445 458.5L496.945 666H429.945L389.945 458.5L343.445 666H281.945L366.445 336H485.445L517.945 498.5L592.945 336H705.445Z" fill="white"/>
    <defs>
        <linearGradient id="paint0_linear" x1="628.278" y1="600.522" x2="-303.562" y2="1532.36" gradientUnits="userSpaceOnUse">
            <stop stop-color="#2FC1FF"/>
            <stop offset="1" stop-color="#5F87F2"/>
        </linearGradient>
    </defs>
</svg>
