<svg width="134" height="287" viewBox="0 0 134 287" fill="none" xmlns="http://www.w3.org/2000/svg">
<path d="M55.5971 210.035L48.7107 214.085V213.316L55.192 208.921L55.5971 210.035Z" fill="#7CB3AB"/>
<path d="M108.967 89.8267L89.0164 101.27C89.0164 101.27 105.523 130.537 98.5358 157.982C96.1639 167.297 89.2189 171.856 89.2189 171.856L110.384 159.703C110.384 159.703 120.064 151.703 120.916 136.006C122.132 113.625 108.967 89.8267 108.967 89.8267Z" fill="#F58943"/>
<path d="M81.2186 148.564L61.3696 160.21H60.3569V94.8903H81.2186V148.564Z" fill="#68B5AB"/>
<path d="M42.7359 34.4319L22.4819 27.748L19.7476 109.98C20.659 123.651 48.9134 151.5 48.9134 151.5L49.3185 113.727C49.3185 113.727 42.7359 104.916 42.7359 85.5734V34.4319Z" fill="#F58943"/>
<path d="M10.532 93.8775V23.5959L22.4819 27.6468V93.8775C22.4819 130.841 48.8122 150.488 48.8122 150.488V165.172C48.8122 165.172 12.1524 137.322 10.532 93.8775Z" fill="#F37725"/>
<path d="M89.0163 101.27L79.8007 105.827C79.8007 105.827 73.6232 95.7004 67.4457 95.7004C61.572 95.7004 61.572 102.688 61.572 102.688L61.0657 220.769L55.0907 209.326L48.7107 213.984L48.9132 95.7004C48.9132 95.7004 48.9132 77.9781 65.5216 80.3073C78.0356 82.0623 89.0163 101.27 89.0163 101.27Z" fill="#4FA79B"/>
<path d="M80.4083 67.041L56.5085 81.4213C56.5085 81.4213 61.8759 78.9086 68.2559 81.0163C79.5982 84.7633 89.0163 101.27 89.0163 101.27L108.967 89.8268C96.409 68.56 80.4083 67.041 80.4083 67.041Z" fill="#68B5AB"/>
<path d="M94.7888 52.3568L89.4215 55.3949L88.6113 73.7248L108.562 62.18L108.764 57.2177L94.7888 52.3568Z" fill="#4881B5"/>
<path d="M32.8116 31.09L26.8367 34.4319L89.4217 55.3948L94.789 52.3567L32.8116 31.09Z" fill="#3C7CB3"/>
<path d="M34.3304 55.4961L26.8364 34.4319L89.4215 55.3948L88.6113 73.7248L34.3304 55.4961Z" fill="#206BAB"/>
<path d="M131.854 40.3056L112.005 51.7491L113.321 58.8381L133.17 47.2933L131.854 40.3056Z" fill="#4881B5"/>
<path d="M0 13.3677L19.6464 1.82288L131.854 40.3056L112.005 51.7491L0 13.3677Z" fill="#3C7CB3"/>
<path d="M1.11397 20.4566L0 13.3677L112.005 51.7491L113.321 58.838L1.11397 20.4566Z" fill="#206BAB"/>
<path d="M10.5322 17.0134V11.5448L22.9885 15.8994V21.2667L10.5322 17.0134Z" fill="#F37725"/>
<path d="M42.8373 9.62068L22.9883 21.2668V15.8994L42.8373 4.25336V9.62068Z" fill="#F58943"/>
<path d="M30.3812 0L10.5322 11.5448L22.9885 15.8994L42.8374 4.25335L30.3812 0Z" fill="#F48439"/>
<path d="M81.2186 146.639L61.3696 158.184V160.108H82.13L88.0037 148.26C87.9728 148.23 87.9413 148.201 87.909 148.173C85.1681 148.057 81.2186 146.639 81.2186 146.639Z" fill="#F58943"/>
<path d="M61.0657 220.87L61.1669 172.666L81.0159 175.501V209.427L61.0657 220.87Z" fill="#68B5AB"/>
<path d="M89.0163 101.27L79.8007 105.827C79.8007 105.827 94.0798 130.942 86.1808 149.374C86.1808 149.374 82.6363 158.994 72.3067 159.906C67.9933 160.286 61.2683 158.083 61.2683 158.083L61.167 172.666C61.167 172.666 69.6737 176.312 77.4715 176.008C77.4715 176.008 97.1179 176.615 100.662 149.374C103.557 127.127 89.0163 101.27 89.0163 101.27Z" fill="#F37725"/>
<path d="M113.929 257.125C113.929 273.625 90.8052 287 62.2809 287C33.7566 287 10.6331 273.625 10.6331 257.125C10.6331 240.626 33.7566 227.251 62.2809 227.251C90.8052 227.251 113.929 240.626 113.929 257.125Z" fill="#D0D0D0"/>
</svg>
