<svg width="19" height="18" viewBox="0 0 19 18" fill="none" xmlns="http://www.w3.org/2000/svg">
<path d="M8.57881 1.18087C8.92286 0.36635 10.0771 0.366349 10.4212 1.18087L12.2656 5.54743C12.4121 5.89431 12.7411 6.12948 13.1167 6.15586L17.6132 6.47168C18.4989 6.53389 18.8703 7.63343 18.2038 8.21995L14.5055 11.4743C14.2185 11.7269 14.1006 12.1211 14.2018 12.4898L15.2954 16.4725C15.5385 17.3581 14.5595 18.0757 13.7882 17.5771L10.0429 15.156C9.71247 14.9425 9.28753 14.9425 8.95712 15.156L5.2118 17.5771C4.44054 18.0757 3.46145 17.3581 3.70461 16.4725L4.79816 12.4898C4.8994 12.1211 4.78152 11.7269 4.49446 11.4743L0.796225 8.21995C0.129702 7.63343 0.501118 6.53389 1.38678 6.47168L5.88326 6.15586C6.2589 6.12948 6.58787 5.89431 6.73439 5.54743L8.57881 1.18087Z" fill="#FFCB11"/>
</svg>
