<svg xmlns="http://www.w3.org/2000/svg" viewBox="0 0 82.57 126.45"><defs><style>.cls-1{fill:#1960a5;}.cls-2{fill:#ed6b09;}.cls-3{fill:#4ca499;}</style></defs><title>MP_symbol_colour-on-light_RGB</title><g id="Layer_2" data-name="Layer 2"><g id="Layer_1-2" data-name="Layer 1"><polygon class="cls-1" points="64.68 22.86 25.08 31.13 19.71 20.49 65.35 10.97 64.68 22.86"/><path class="cls-2" d="M40.72,95.82V86.75A24,24,0,0,0,58.31,46.4L65,40.23A33.08,33.08,0,0,1,40.72,95.82Z"/><path class="cls-2" d="M16.71,62.74V10.21L7.64,12.1V62.74A33.12,33.12,0,0,0,40.72,95.82V86.75A24,24,0,0,1,16.71,62.74Z"/><rect class="cls-1" x="-0.46" y="8.48" width="83.49" height="4.08" transform="matrix(0.98, -0.2, 0.2, 0.98, -1.28, 8.65)"/><path class="cls-3" d="M52.61,34.85A16.79,16.79,0,0,0,35.84,51.62v74.83l4.63-5.31,4.44,5.08V51.62A7.7,7.7,0,0,1,58.28,46.4L65,40.27A16.81,16.81,0,0,0,52.61,34.85Z"/></g></g></svg>