<svg width="20" height="20" viewBox="0 0 20 20" fill="none" xmlns="http://www.w3.org/2000/svg">
<path d="M20 10C20 4.47713 15.5229 0 10 0C4.47713 0 0 4.47713 0 10C0 15.5229 4.47713 20 10 20H20V18.3333H15.5208C18.3167 16.4823 19.9988 13.3533 20 10ZM14.8983 16.7419C13.7813 17.5533 12.2176 17.3059 11.4062 16.1886C10.5949 15.0716 10.8423 13.5083 11.9592 12.6965C13.0766 11.8852 14.6399 12.1326 15.4513 13.2499C16.263 14.3669 16.0152 15.9302 14.8983 16.7419ZM14.7754 5.81991C16.0885 5.39307 17.4988 6.11165 17.9256 7.42472C18.3521 8.7382 17.6335 10.1485 16.3204 10.575C15.0073 11.0018 13.597 10.2832 13.1702 8.97013C12.7437 7.65706 13.4623 6.24634 14.7754 5.81991ZM10 1.66667C11.3806 1.66667 12.5 2.78605 12.5 4.16667C12.5 5.54728 11.3806 6.66667 10 6.66667C8.61938 6.66667 7.5 5.54728 7.5 4.16667C7.5 2.78605 8.61938 1.66667 10 1.66667ZM2.07438 7.42472C2.50122 6.11165 3.91154 5.39307 5.22461 5.8195C6.53768 6.24634 7.25627 7.65666 6.82983 8.96973C6.40299 10.2828 4.99268 11.0014 3.67961 10.575C2.36654 10.1485 1.64795 8.7382 2.07438 7.42472ZM8.59375 16.1886C7.78239 17.3059 6.21867 17.5533 5.10173 16.7419C3.98478 15.9302 3.73698 14.3669 4.54875 13.2499C5.36011 12.133 6.92383 11.8852 8.04077 12.6969C9.15771 13.5083 9.40511 15.0716 8.59375 16.1886ZM9.16667 10C9.16667 9.53979 9.53979 9.16667 10 9.16667C10.4602 9.16667 10.8333 9.53979 10.8333 10C10.8333 10.4602 10.4602 10.8333 10 10.8333C9.53979 10.8333 9.16667 10.4602 9.16667 10Z" fill="#AC30B8"/>
</svg>
